<svg width="1171" height="195" viewBox="0 0 1171 195" fill="none" xmlns="http://www.w3.org/2000/svg">
<mask id="path-1-outside-1_252_209" maskUnits="userSpaceOnUse" x="0" y="0" width="1171" height="195" fill="black">
<rect fill="white" width="1171" height="195"/>
<path d="M5.35833 186L41.6183 4.69999H91.3463L139.779 123.063H113.361L206.601 4.69999H258.66L222.918 186H167.233L186.14 88.616L194.946 88.098L132.268 169.683H105.332L70.1083 87.839L80.4683 88.616L61.0433 186H5.35833ZM252.471 186L288.731 4.69999H349.855L313.595 186H252.471ZM405.438 148.704L414.503 80.069L495.311 4.69999H565.5L472.519 89.134L431.079 124.876L405.438 148.704ZM343.019 186L379.279 4.69999H439.367L403.107 186H343.019ZM465.526 186L421.755 115.552L467.08 74.63L533.643 186H465.526ZM694.909 4.69999H756.033L719.773 186H658.649L694.909 4.69999ZM602.187 186H541.063L577.323 4.69999H638.447L602.187 186ZM676.002 119.178H611.511L621.612 68.932H686.103L676.002 119.178ZM840.652 190.144C821.831 190.144 806.118 186.604 793.514 179.525C780.909 172.273 771.93 162.258 766.578 149.481C761.398 136.531 760.534 121.509 763.988 104.415L783.931 4.69999H845.055L825.371 103.379C824.162 109.768 823.73 115.293 824.076 119.955C824.421 124.617 825.543 128.502 827.443 131.61C829.515 134.718 832.277 137.049 835.731 138.603C839.184 139.984 843.328 140.675 848.163 140.675C854.033 140.675 859.041 139.466 863.185 137.049C867.501 134.632 871.041 130.66 873.804 125.135C876.739 119.61 879.07 112.358 880.797 103.379L900.481 4.69999H960.569L940.108 107.005C934.755 134.114 923.791 154.747 907.215 168.906C890.639 183.065 868.451 190.144 840.652 190.144ZM996.418 186L1012.22 106.487L1018.95 143.006L964.302 4.69999H1025.68L1062.98 99.753H1024.39L1100.79 4.69999H1162.18L1052.62 143.006L1073.34 106.487L1057.54 186H996.418Z"/>
</mask>
<path d="M5.35833 186L41.6183 4.69999H91.3463L139.779 123.063H113.361L206.601 4.69999H258.66L222.918 186H167.233L186.14 88.616L194.946 88.098L132.268 169.683H105.332L70.1083 87.839L80.4683 88.616L61.0433 186H5.35833ZM252.471 186L288.731 4.69999H349.855L313.595 186H252.471ZM405.438 148.704L414.503 80.069L495.311 4.69999H565.5L472.519 89.134L431.079 124.876L405.438 148.704ZM343.019 186L379.279 4.69999H439.367L403.107 186H343.019ZM465.526 186L421.755 115.552L467.08 74.63L533.643 186H465.526ZM694.909 4.69999H756.033L719.773 186H658.649L694.909 4.69999ZM602.187 186H541.063L577.323 4.69999H638.447L602.187 186ZM676.002 119.178H611.511L621.612 68.932H686.103L676.002 119.178ZM840.652 190.144C821.831 190.144 806.118 186.604 793.514 179.525C780.909 172.273 771.93 162.258 766.578 149.481C761.398 136.531 760.534 121.509 763.988 104.415L783.931 4.69999H845.055L825.371 103.379C824.162 109.768 823.73 115.293 824.076 119.955C824.421 124.617 825.543 128.502 827.443 131.61C829.515 134.718 832.277 137.049 835.731 138.603C839.184 139.984 843.328 140.675 848.163 140.675C854.033 140.675 859.041 139.466 863.185 137.049C867.501 134.632 871.041 130.66 873.804 125.135C876.739 119.61 879.07 112.358 880.797 103.379L900.481 4.69999H960.569L940.108 107.005C934.755 134.114 923.791 154.747 907.215 168.906C890.639 183.065 868.451 190.144 840.652 190.144ZM996.418 186L1012.22 106.487L1018.95 143.006L964.302 4.69999H1025.68L1062.98 99.753H1024.39L1100.79 4.69999H1162.18L1052.62 143.006L1073.34 106.487L1057.54 186H996.418Z" fill="#F4F0C9"/>
<path d="M5.35833 186L1.43601 185.216L0.479116 190H5.35833V186ZM41.6183 4.69999V0.699989H38.3391L37.696 3.91552L41.6183 4.69999ZM91.3463 4.69999L95.0484 3.18514L94.0315 0.699989H91.3463V4.69999ZM139.779 123.063V127.063H145.738L143.481 121.548L139.779 123.063ZM113.361 123.063L110.219 120.588L105.118 127.063H113.361V123.063ZM206.601 4.69999V0.699989H204.66L203.459 2.22475L206.601 4.69999ZM258.66 4.69999L262.585 5.47367L263.526 0.699989H258.66V4.69999ZM222.918 186V190H226.207L226.843 186.774L222.918 186ZM167.233 186L163.307 185.238L162.382 190H167.233V186ZM186.14 88.616L185.905 84.6229L182.806 84.8053L182.214 87.8536L186.14 88.616ZM194.946 88.098L198.118 90.5349L203.453 83.5907L194.711 84.1049L194.946 88.098ZM132.268 169.683V173.683H134.239L135.44 172.12L132.268 169.683ZM105.332 169.683L101.658 171.264L102.699 173.683H105.332V169.683ZM70.1083 87.839L70.4075 83.8502L63.8244 83.3565L66.4342 89.4203L70.1083 87.839ZM80.4683 88.616L84.3911 89.3985L85.2753 84.9653L80.7675 84.6272L80.4683 88.616ZM61.0433 186V190H64.3243L64.9661 186.782L61.0433 186ZM9.28065 186.784L45.5407 5.48445L37.696 3.91552L1.43601 185.216L9.28065 186.784ZM41.6183 8.69999H91.3463V0.699989H41.6183V8.69999ZM87.6443 6.21484L136.077 124.578L143.481 121.548L95.0484 3.18514L87.6443 6.21484ZM139.779 119.063H113.361V127.063H139.779V119.063ZM116.504 125.538L209.744 7.17522L203.459 2.22475L110.219 120.588L116.504 125.538ZM206.601 8.69999H258.66V0.699989H206.601V8.69999ZM254.736 3.92631L218.994 185.226L226.843 186.774L262.585 5.47367L254.736 3.92631ZM222.918 182H167.233V190H222.918V182ZM171.16 186.762L190.067 89.3784L182.214 87.8536L163.307 185.238L171.16 186.762ZM186.375 92.6091L195.181 92.0911L194.711 84.1049L185.905 84.6229L186.375 92.6091ZM191.774 85.6611L129.096 167.246L135.44 172.12L198.118 90.5349L191.774 85.6611ZM132.268 165.683H105.332V173.683H132.268V165.683ZM109.007 168.102L73.7825 86.2577L66.4342 89.4203L101.658 171.264L109.007 168.102ZM69.8092 91.8278L80.1692 92.6048L80.7675 84.6272L70.4075 83.8502L69.8092 91.8278ZM76.5456 87.8335L57.1206 185.218L64.9661 186.782L84.3911 89.3985L76.5456 87.8335ZM61.0433 182H5.35833V190H61.0433V182ZM252.471 186L248.548 185.216L247.591 190H252.471V186ZM288.731 4.69999V0.699989H285.451L284.808 3.91552L288.731 4.69999ZM349.855 4.69999L353.777 5.48445L354.734 0.699989H349.855V4.69999ZM313.595 186V190H316.874L317.517 186.784L313.595 186ZM256.393 186.784L292.653 5.48445L284.808 3.91552L248.548 185.216L256.393 186.784ZM288.731 8.69999H349.855V0.699989H288.731V8.69999ZM345.932 3.91552L309.672 185.216L317.517 186.784L353.777 5.48445L345.932 3.91552ZM313.595 182H252.471V190H313.595V182ZM405.438 148.704L401.473 148.18L400.017 159.203L408.161 151.634L405.438 148.704ZM414.503 80.069L411.775 77.1438L410.726 78.1226L410.538 79.5452L414.503 80.069ZM495.311 4.69999V0.699989H493.736L492.583 1.77483L495.311 4.69999ZM565.5 4.69999L568.19 7.66124L575.855 0.699989H565.5V4.69999ZM472.519 89.134L475.132 92.163L475.171 92.1296L475.209 92.0952L472.519 89.134ZM431.079 124.876L428.467 121.847L428.411 121.895L428.357 121.946L431.079 124.876ZM343.019 186L339.097 185.216L338.14 190H343.019V186ZM379.279 4.69999V0.699989H376L375.357 3.91552L379.279 4.69999ZM439.367 4.69999L443.29 5.48445L444.247 0.699989H439.367V4.69999ZM403.107 186V190H406.387L407.03 186.784L403.107 186ZM465.526 186L462.129 188.111L463.303 190H465.526V186ZM421.755 115.552L419.075 112.583L416.594 114.823L418.358 117.663L421.755 115.552ZM467.08 74.63L470.514 72.5779L468.015 68.397L464.4 71.661L467.08 74.63ZM533.643 186V190H540.694L537.077 183.948L533.643 186ZM409.404 149.228L418.469 80.5928L410.538 79.5452L401.473 148.18L409.404 149.228ZM417.232 82.9942L498.04 7.62514L492.583 1.77483L411.775 77.1438L417.232 82.9942ZM495.311 8.69999H565.5V0.699989H495.311V8.69999ZM562.811 1.73873L469.83 86.1727L475.209 92.0952L568.19 7.66124L562.811 1.73873ZM469.907 86.105L428.467 121.847L433.692 127.905L475.132 92.163L469.907 86.105ZM428.357 121.946L402.716 145.774L408.161 151.634L433.802 127.806L428.357 121.946ZM346.942 186.784L383.202 5.48445L375.357 3.91552L339.097 185.216L346.942 186.784ZM379.279 8.69999H439.367V0.699989H379.279V8.69999ZM435.445 3.91552L399.185 185.216L407.03 186.784L443.29 5.48445L435.445 3.91552ZM403.107 182H343.019V190H403.107V182ZM468.924 183.889L425.153 113.441L418.358 117.663L462.129 188.111L468.924 183.889ZM424.436 118.521L469.761 77.599L464.4 71.661L419.075 112.583L424.436 118.521ZM463.647 76.6821L530.21 188.052L537.077 183.948L470.514 72.5779L463.647 76.6821ZM533.643 182H465.526V190H533.643V182ZM694.909 4.69999V0.699989H691.63L690.987 3.91552L694.909 4.69999ZM756.033 4.69999L759.956 5.48445L760.913 0.699989H756.033V4.69999ZM719.773 186V190H723.053L723.696 186.784L719.773 186ZM658.649 186L654.727 185.216L653.77 190H658.649V186ZM602.187 186V190H605.467L606.11 186.784L602.187 186ZM541.063 186L537.141 185.216L536.184 190H541.063V186ZM577.323 4.69999V0.699989H574.044L573.401 3.91552L577.323 4.69999ZM638.447 4.69999L642.37 5.48445L643.327 0.699989H638.447V4.69999ZM676.002 119.178V123.178H679.278L679.924 119.966L676.002 119.178ZM611.511 119.178L607.59 118.39L606.627 123.178H611.511V119.178ZM621.612 68.932V64.932H618.336L617.691 68.1436L621.612 68.932ZM686.103 68.932L690.025 69.7204L690.988 64.932H686.103V68.932ZM694.909 8.69999H756.033V0.699989H694.909V8.69999ZM752.111 3.91552L715.851 185.216L723.696 186.784L759.956 5.48445L752.111 3.91552ZM719.773 182H658.649V190H719.773V182ZM662.572 186.784L698.832 5.48445L690.987 3.91552L654.727 185.216L662.572 186.784ZM602.187 182H541.063V190H602.187V182ZM544.986 186.784L581.246 5.48445L573.401 3.91552L537.141 185.216L544.986 186.784ZM577.323 8.69999H638.447V0.699989H577.323V8.69999ZM634.525 3.91552L598.265 185.216L606.11 186.784L642.37 5.48445L634.525 3.91552ZM676.002 115.178H611.511V123.178H676.002V115.178ZM615.433 119.966L625.534 69.7204L617.691 68.1436L607.59 118.39L615.433 119.966ZM621.612 72.932H686.103V64.932H621.612V72.932ZM682.182 68.1436L672.081 118.39L679.924 119.966L690.025 69.7204L682.182 68.1436ZM793.514 179.525L791.519 182.992L791.537 183.002L791.555 183.013L793.514 179.525ZM766.578 149.481L762.864 150.967L762.876 150.997L762.888 151.027L766.578 149.481ZM763.988 104.415L767.908 105.207L767.91 105.199L763.988 104.415ZM783.931 4.69999V0.699989H780.651L780.008 3.91552L783.931 4.69999ZM845.055 4.69999L848.977 5.48248L849.931 0.699989H845.055V4.69999ZM825.371 103.379L821.448 102.597L821.444 102.616L821.44 102.635L825.371 103.379ZM824.076 119.955L828.065 119.66L824.076 119.955ZM827.443 131.61L824.029 133.696L824.071 133.763L824.114 133.829L827.443 131.61ZM835.731 138.603L834.089 142.251L834.166 142.285L834.245 142.317L835.731 138.603ZM863.185 137.049L861.23 133.559L861.199 133.576L861.169 133.594L863.185 137.049ZM873.804 125.135L870.271 123.258L870.248 123.302L870.226 123.346L873.804 125.135ZM880.797 103.379L876.874 102.597L876.871 102.61L876.869 102.624L880.797 103.379ZM900.481 4.69999V0.699989H897.2L896.558 3.9175L900.481 4.69999ZM960.569 4.69999L964.491 5.48445L965.448 0.699989H960.569V4.69999ZM940.108 107.005L936.185 106.221L936.183 106.23L940.108 107.005ZM907.215 168.906L909.812 171.947L907.215 168.906ZM840.652 186.144C822.316 186.144 807.325 182.694 795.472 176.037L791.555 183.013C804.912 190.514 821.346 194.144 840.652 194.144V186.144ZM795.508 176.058C783.623 169.22 775.263 159.862 770.267 147.935L762.888 151.027C768.597 164.655 778.194 175.326 791.519 182.992L795.508 176.058ZM770.291 147.995C765.465 135.93 764.571 121.729 767.908 105.207L760.067 103.623C756.498 121.289 757.33 137.132 762.864 150.967L770.291 147.995ZM767.91 105.199L787.853 5.48445L780.008 3.91552L760.065 103.631L767.91 105.199ZM783.931 8.69999H845.055V0.699989H783.931V8.69999ZM841.132 3.9175L821.448 102.597L829.293 104.161L848.977 5.48248L841.132 3.9175ZM821.44 102.635C820.19 109.244 819.708 115.135 820.086 120.25L828.065 119.66C827.753 115.451 828.134 110.292 829.301 104.123L821.44 102.635ZM820.086 120.25C820.466 125.372 821.718 129.913 824.029 133.696L830.856 129.524C829.368 127.09 828.376 123.862 828.065 119.66L820.086 120.25ZM824.114 133.829C826.609 137.571 829.96 140.393 834.089 142.251L837.372 134.955C834.594 133.705 832.42 131.865 830.771 129.391L824.114 133.829ZM834.245 142.317C838.289 143.935 842.964 144.675 848.163 144.675V136.675C843.692 136.675 840.079 136.034 837.216 134.889L834.245 142.317ZM848.163 144.675C854.584 144.675 860.321 143.35 865.2 140.504L861.169 133.594C857.76 135.582 853.483 136.675 848.163 136.675V144.675ZM865.139 140.539C870.311 137.643 874.35 132.987 877.381 126.924L870.226 123.346C867.732 128.334 864.691 131.621 861.23 133.559L865.139 140.539ZM877.336 127.012C880.523 121.013 882.954 113.341 884.725 104.134L876.869 102.624C875.186 111.374 872.955 118.207 870.271 123.258L877.336 127.012ZM884.719 104.161L904.403 5.48248L896.558 3.9175L876.874 102.597L884.719 104.161ZM900.481 8.69999H960.569V0.699989H900.481V8.69999ZM956.646 3.91552L936.185 106.221L944.03 107.789L964.491 5.48445L956.646 3.91552ZM936.183 106.23C930.958 132.696 920.342 152.432 904.617 165.865L909.812 171.947C927.239 157.063 938.552 135.531 944.032 107.78L936.183 106.23ZM904.617 165.865C888.946 179.25 867.767 186.144 840.652 186.144V194.144C869.135 194.144 892.331 186.879 909.812 171.947L904.617 165.865ZM996.418 186L992.495 185.22L991.545 190H996.418V186ZM1012.22 106.487L1016.15 105.762L1008.29 105.707L1012.22 106.487ZM1018.95 143.006L1015.23 144.476L1022.88 142.281L1018.95 143.006ZM964.302 4.69999V0.699989H958.42L960.582 6.16992L964.302 4.69999ZM1025.68 4.69999L1029.41 3.23895L1028.41 0.699989H1025.68V4.69999ZM1062.98 99.753V103.753H1068.85L1066.7 98.292L1062.98 99.753ZM1024.39 99.753L1021.27 97.247L1016.04 103.753H1024.39V99.753ZM1100.79 4.69999V0.699989H1098.88L1097.68 2.19396L1100.79 4.69999ZM1162.18 4.69999L1165.31 7.1837L1170.45 0.699989H1162.18V4.69999ZM1052.62 143.006L1049.14 141.032L1055.76 145.49L1052.62 143.006ZM1073.34 106.487L1077.26 107.267L1069.86 104.513L1073.34 106.487ZM1057.54 186V190H1060.83L1061.47 186.78L1057.54 186ZM1000.34 186.78L1016.14 107.267L1008.29 105.707L992.495 185.22L1000.34 186.78ZM1008.28 107.212L1015.02 143.731L1022.88 142.281L1016.15 105.762L1008.28 107.212ZM1022.67 141.536L968.022 3.23005L960.582 6.16992L1015.23 144.476L1022.67 141.536ZM964.302 8.69999H1025.68V0.699989H964.302V8.69999ZM1021.96 6.16103L1059.26 101.214L1066.7 98.292L1029.41 3.23895L1021.96 6.16103ZM1062.98 95.753H1024.39V103.753H1062.98V95.753ZM1027.51 102.259L1103.91 7.20602L1097.68 2.19396L1021.27 97.247L1027.51 102.259ZM1100.79 8.69999H1162.18V0.699989H1100.79V8.69999ZM1159.04 2.21627L1049.49 140.522L1055.76 145.49L1165.31 7.1837L1159.04 2.21627ZM1056.1 144.98L1076.82 108.461L1069.86 104.513L1049.14 141.032L1056.1 144.98ZM1069.42 105.707L1053.62 185.22L1061.47 186.78L1077.26 107.267L1069.42 105.707ZM1057.54 182H996.418V190H1057.54V182Z" fill="black" mask="url(#path-1-outside-1_252_209)"/>
</svg>
